<?xml version="1.0" standalone="no"?>
<!DOCTYPE svg PUBLIC "-//W3C//DTD SVG 20010904//EN"
 "http://www.w3.org/TR/2001/REC-SVG-20010904/DTD/svg10.dtd">
<svg version="1.0" xmlns="http://www.w3.org/2000/svg"
 width="800.000000pt" height="362.000000pt" viewBox="0 0 800.000000 362.000000"
 preserveAspectRatio="xMidYMid meet">

<g transform="translate(0.000000,362.000000) scale(0.100000,-0.100000)"
fill="#000000" stroke="none">
<path d="M3728 3603 c29 -2 74 -2 100 0 26 2 2 3 -53 3 -55 0 -76 -1 -47 -3z"/>
<path d="M4173 3603 c9 -2 23 -2 30 0 6 3 -1 5 -18 5 -16 0 -22 -2 -12 -5z"/>
<path d="M4243 3603 c15 -2 39 -2 55 0 15 2 2 4 -28 4 -30 0 -43 -2 -27 -4z"/>
<path d="M3558 3593 c18 -2 45 -2 60 0 15 2 0 4 -33 4 -33 0 -45 -2 -27 -4z"/>
<path d="M4377 3593 c18 -2 50 -2 70 0 21 2 7 4 -32 4 -38 0 -55 -2 -38 -4z"/>
<path d="M3458 3583 c12 -2 32 -2 45 0 12 2 2 4 -23 4 -25 0 -35 -2 -22 -4z"/>
<path d="M4523 3583 c9 -2 25 -2 35 0 9 3 1 5 -18 5 -19 0 -27 -2 -17 -5z"/>
<path d="M3333 3573 c15 -2 39 -2 55 0 15 2 2 4 -28 4 -30 0 -43 -2 -27 -4z"/>
<path d="M4621 3576 c2 -2 40 -6 84 -9 57 -4 69 -3 40 3 -40 9 -132 13 -124 6z"/>
<path d="M3181 3559 c-30 -5 -57 -12 -60 -15 -7 -6 74 4 129 16 49 11 0 10
-69 -1z"/>
<path d="M4803 3553 c9 -2 23 -2 30 0 6 3 -1 5 -18 5 -16 0 -22 -2 -12 -5z"/>
<path d="M4868 3543 c6 -2 18 -2 25 0 6 3 1 5 -13 5 -14 0 -19 -2 -12 -5z"/>
<path d="M3043 3533 c9 -2 25 -2 35 0 9 3 1 5 -18 5 -19 0 -27 -2 -17 -5z"/>
<path d="M3750 3529 c-218 -9 -370 -23 -575 -55 -186 -28 -218 -34 -212 -40 2
-2 71 7 153 21 283 46 421 57 802 62 228 3 420 1 515 -7 448 -34 857 -118
1135 -232 40 -17 75 -28 78 -26 2 3 -42 23 -99 46 -319 126 -773 209 -1267
232 -222 10 -266 10 -530 -1z"/>
<path d="M5019 3520 c52 -11 97 -18 99 -16 5 5 -93 26 -148 31 -25 3 -3 -4 49
-15z"/>
<path d="M2988 3523 c6 -2 18 -2 25 0 6 3 1 5 -13 5 -14 0 -19 -2 -12 -5z"/>
<path d="M2938 3513 c7 -3 16 -2 19 1 4 3 -2 6 -13 5 -11 0 -14 -3 -6 -6z"/>
<path d="M2830 3495 c-60 -17 -29 -18 40 0 30 7 44 13 30 13 -14 0 -45 -6 -70
-13z"/>
<path d="M5138 3493 c6 -2 18 -2 25 0 6 3 1 5 -13 5 -14 0 -19 -2 -12 -5z"/>
<path d="M2758 3473 c7 -3 16 -2 19 1 4 3 -2 6 -13 5 -11 0 -14 -3 -6 -6z"/>
<path d="M5238 3473 c7 -3 16 -2 19 1 4 3 -2 6 -13 5 -11 0 -14 -3 -6 -6z"/>
<path d="M2718 3463 c7 -3 16 -2 19 1 4 3 -2 6 -13 5 -11 0 -14 -3 -6 -6z"/>
<path d="M3535 3454 c-381 -34 -744 -107 -990 -199 -53 -20 -79 -23 -203 -23
-148 0 -172 -6 -172 -43 0 -10 5 -21 10 -24 31 -19 -23 -25 -238 -27 l-237 -3
230 -3 c162 -2 237 1 252 9 27 14 53 -2 53 -32 0 -18 -13 -19 -269 -19 -149 0
-272 4 -275 9 -3 5 -1 33 4 62 8 41 18 60 40 79 35 29 39 55 11 70 -11 6 -88
10 -180 10 -132 0 -162 -3 -175 -16 -22 -22 -20 -32 14 -62 16 -15 30 -30 30
-34 0 -5 -138 -8 -306 -8 l-307 0 39 -40 c22 -22 61 -77 88 -122 26 -46 45
-74 41 -63 -13 40 -75 141 -109 178 l-35 37 298 0 299 0 4 -39 c2 -22 2 -45 0
-50 -2 -7 -67 -11 -189 -11 l-185 0 44 -49 c92 -102 138 -226 138 -372 0 -178
-40 -320 -122 -428 -49 -64 -71 -86 -154 -146 l-60 -44 -201 -1 c-111 0 -209
-3 -217 -6 -9 -3 -16 -13 -16 -22 0 -12 -10 -14 -63 -9 -34 4 -73 9 -87 12
l-25 6 25 -11 c14 -6 53 -14 87 -17 35 -3 63 -10 63 -14 0 -5 12 -15 28 -23
l27 -15 -35 0 c-19 -1 -66 6 -105 14 -38 8 -74 15 -79 15 -4 0 -6 -102 -4
-227 4 -207 7 -238 31 -329 41 -155 100 -286 188 -414 35 -51 37 -58 29 -95
-5 -22 -19 -47 -31 -55 -11 -8 -32 -25 -44 -36 -22 -20 -25 -20 -41 -5 -17 15
-17 15 -4 -4 46 -64 50 -65 205 -65 79 0 146 -4 150 -9 11 -18 151 -98 235
-133 47 -20 175 -61 285 -90 l200 -53 1110 -5 1110 -5 51 -27 c67 -35 105 -82
160 -195 25 -51 48 -93 52 -93 4 0 27 41 50 91 54 115 112 179 188 208 56 21
58 21 1109 21 1109 0 1113 0 1282 46 32 8 99 26 148 39 161 42 261 84 352 146
35 25 54 30 127 34 84 5 239 45 251 65 4 6 10 8 15 5 15 -9 128 105 162 163
27 47 32 69 36 137 4 70 1 89 -18 131 -13 27 -23 51 -22 54 1 3 14 37 30 76
16 38 32 86 36 105 3 18 -9 -7 -27 -56 -19 -50 -38 -99 -44 -109 -10 -18 -12
-17 -28 7 -16 25 -16 30 4 109 28 114 39 235 40 417 l1 153 -38 -8 c-45 -10
-102 -10 -294 2 -145 10 -148 10 -230 52 -191 97 -325 255 -363 430 -6 28 -4
32 14 32 27 0 45 34 31 59 -16 30 -12 39 18 43 24 3 27 8 30 43 2 22 8 44 13
50 16 16 11 105 -7 112 -12 4 -14 15 -11 42 l5 36 -11 -37 c-10 -36 -13 -38
-50 -38 -38 0 -39 1 -33 28 12 50 68 153 112 208 l44 54 -217 2 c-198 3 -218
5 -221 21 -3 16 15 17 263 17 298 0 278 6 213 -65 -31 -33 -98 -155 -98 -176
1 -8 16 18 36 58 19 39 55 94 79 121 25 28 45 55 45 61 0 8 -78 11 -264 11
l-264 0 -4 25 -5 25 334 0 c265 0 333 -3 327 -12 -5 -8 0 -7 11 2 16 13 -19
15 -328 18 -341 2 -346 3 -352 23 -6 18 -13 20 -44 15 -37 -6 -470 -8 -661 -3
-58 2 -134 0 -169 -3 -56 -6 -75 -3 -138 22 -247 96 -603 167 -1013 203 -216
18 -713 18 -925 -1z m-1833 -190 c-50 -35 -52 -48 -53 -426 -1 -296 -3 -343
-13 -290 -6 35 -14 60 -18 56 -5 -4 -8 -2 -8 5 0 8 -5 9 -19 1 -15 -7 -23 -6
-35 5 -8 8 -19 15 -24 15 -14 0 -23 -72 -21 -163 1 -43 -1 -81 -5 -84 -3 -4
-6 175 -6 396 0 424 -3 453 -48 487 -14 11 6 13 128 14 134 0 143 -1 122 -16z
m1038 -144 c0 -47 -4 -80 -10 -80 -5 0 -10 4 -10 9 0 23 -87 43 -183 43 -55 0
-101 -3 -104 -5 -2 -3 -4 -63 -4 -134 l0 -128 115 0 116 0 0 -64 c0 -56 -2
-62 -17 -56 -40 17 -104 26 -159 23 l-59 -3 -3 -167 -2 -166 72 -12 c94 -16
212 -8 273 19 26 11 52 18 58 14 5 -3 7 -2 4 3 -3 6 3 16 15 23 11 7 19 9 17
4 -2 -5 -15 -39 -28 -75 -18 -51 -27 -63 -36 -55 -10 9 -9 14 3 23 14 10 10
14 -23 23 -57 16 -79 12 -25 -5 40 -12 41 -13 10 -9 -19 2 -75 7 -125 10 -203
14 -225 18 -225 47 0 12 -4 17 -12 12 -8 -5 -9 -2 -5 9 5 13 1 17 -18 17 -14
0 -25 -5 -25 -11 0 -6 -7 -4 -15 5 -8 8 -15 19 -15 25 0 6 -4 11 -9 11 -6 0
-12 -19 -14 -42 -2 -24 -4 117 -5 313 -2 372 -6 409 -46 432 -17 10 24 13 229
17 138 3 253 7 258 8 4 1 7 -34 7 -78z m2013 69 l57 -12 0 -78 0 -79 -45 29
c-66 42 -123 55 -218 48 -229 -14 -367 -159 -367 -383 0 -110 27 -174 110
-255 49 -49 83 -73 126 -89 73 -28 187 -36 282 -20 l72 12 0 148 c0 140 -1
149 -25 184 l-24 36 95 0 94 0 -2 -197 -3 -198 -25 -3 c-14 -2 -22 -1 -18 4 4
4 3 13 -2 19 -12 14 -103 1 -108 -15 -2 -6 -13 -10 -25 -10 -12 0 -29 -5 -37
-11 -11 -8 -5 -9 25 -5 34 5 36 4 15 -5 -14 -6 -59 -9 -102 -7 -42 2 -74 -1
-71 -5 5 -8 -36 -1 -77 14 -30 11 -174 19 -163 9 4 -4 25 -13 46 -20 50 -16
43 -23 -9 -9 -113 31 -245 137 -290 233 -37 80 -50 175 -36 268 31 215 163
347 392 393 82 17 259 18 333 4z m1697 -69 l0 -81 -31 23 c-28 21 -41 23 -152
23 l-122 0 -3 -133 -3 -134 116 4 115 3 0 -69 c0 -68 0 -69 -20 -51 -15 13
-42 19 -115 23 l-95 5 -2 -164 c0 -90 0 -173 0 -184 2 -16 0 -17 -8 -5 -5 8
-10 29 -11 45 -2 30 -2 30 -9 -5 -4 -19 -8 -29 -9 -21 0 7 -7 11 -16 7 -8 -3
-15 0 -15 6 0 7 -4 7 -14 -1 -11 -9 -16 -9 -22 1 -5 8 -12 -3 -20 -32 -9 -37
-11 28 -13 343 -2 411 -4 437 -49 455 -9 4 96 9 233 12 138 3 253 7 258 8 4 1
7 -34 7 -78z m-2779 -334 c165 -413 183 -452 226 -486 l26 -20 -39 1 c-22 1
-52 5 -69 10 -24 6 -20 7 18 4 40 -3 47 -2 38 9 -7 8 -28 13 -54 11 -23 -1
-31 0 -18 2 20 4 16 8 -29 29 -62 29 -57 28 -63 7 -4 -15 -5 -14 -6 3 0 11 -5
24 -10 30 -11 12 -91 206 -91 222 0 9 -45 12 -182 10 l-181 -3 -10 -30 c-5
-16 -25 -69 -43 -117 -35 -90 -43 -155 -22 -176 9 -9 -3 -12 -55 -12 -75 0
-92 16 -22 22 25 2 45 -1 45 -6 0 -5 2 -7 5 -4 3 3 2 13 -1 22 -4 11 -9 14
-13 7 -4 -6 -30 -11 -59 -12 -49 -2 -68 -12 -40 -21 7 -3 -3 -5 -23 -6 l-36
-1 31 32 c21 20 49 74 78 147 155 383 258 653 258 674 0 14 -7 32 -16 41 -15
14 -7 15 91 13 l106 -3 160 -399z m1558 385 c-20 -16 -25 -32 -30 -102 -11
-129 -10 -480 1 -540 13 -67 53 -126 104 -153 52 -26 153 -28 218 -3 50 19
114 81 123 119 3 13 5 161 3 330 -3 301 -3 307 -26 337 l-23 31 122 0 122 0
-24 -26 -24 -26 -3 -308 -3 -309 -22 2 c-67 3 -87 -3 -102 -33 -9 -17 -11 -30
-5 -30 5 0 10 6 10 14 0 17 47 27 77 15 14 -5 23 -5 23 1 0 6 4 10 9 10 5 0
11 -40 13 -89 2 -70 7 -93 22 -110 11 -12 15 -21 10 -21 -5 0 -18 13 -29 30
-16 23 -21 26 -28 15 -5 -10 -22 -14 -50 -13 l-42 1 45 7 45 7 -38 1 c-21 1
-47 -3 -58 -8 -17 -10 -19 -7 -19 21 l0 32 -25 -23 c-19 -18 -27 -21 -39 -11
-8 7 -17 8 -20 3 -3 -5 -15 -12 -26 -15 -11 -3 -18 -2 -15 3 3 4 -11 8 -30 8
-20 0 -32 -4 -29 -10 4 -6 -8 -6 -33 -2 -44 9 -60 9 -128 0 -31 -5 -45 -4 -37
2 9 6 -4 9 -38 8 -50 -1 -51 -1 -29 -18 31 -26 15 -22 -30 6 -45 29 -75 67
-98 128 -13 35 -17 100 -22 365 l-6 321 -24 26 -24 26 127 0 c127 0 128 0 105
-19z m681 -21 c11 -7 6 -10 -20 -10 -26 0 -31 3 -20 10 8 5 17 10 20 10 3 0
12 -5 20 -10z m48 -42 c3 -16 -5 -18 -56 -18 -63 0 -74 4 -65 26 9 23 117 15
121 -8z m667 -358 c86 -33 95 -163 16 -205 -88 -45 -190 8 -191 100 0 38 33
93 63 105 30 12 80 12 112 0z m222 -7 c3 -8 -9 -11 -34 -10 -37 2 -38 1 -41
-35 -3 -36 -2 -38 27 -38 17 0 31 -5 31 -10 0 -6 -15 -9 -32 -8 l-33 3 3 -57
c3 -51 2 -58 -15 -58 -16 0 -18 10 -18 113 l0 114 54 -1 c32 -1 56 -6 58 -13z
m-4751 -340 c-12 -32 -27 -67 -33 -78 -11 -18 -12 -18 -13 -2 0 9 5 17 10 17
6 0 10 6 9 13 -1 6 3 25 10 41 6 16 9 31 6 34 -3 3 -5 1 -5 -5 0 -5 -23 -16
-52 -23 -45 -13 -48 -15 -27 -22 15 -5 10 -6 -14 -2 -26 3 -37 2 -32 -5 3 -6
15 -11 25 -11 10 0 21 -3 23 -7 3 -5 -16 -8 -41 -8 -26 0 -51 -2 -57 -5 -19
-9 -35 -8 -41 1 -3 5 -17 7 -32 4 l-27 -5 25 11 c14 6 45 8 69 6 25 -3 38 -2
30 3 -13 7 -203 22 -255 21 -32 -1 -47 21 -34 50 9 23 9 23 7 -4 -2 -27 0 -29
53 -35 30 -4 102 -7 160 -7 101 0 108 2 175 36 39 20 73 37 76 38 4 0 -3 -25
-15 -56z m4455 -10 c-11 -21 -20 -31 -21 -22 0 8 5 20 12 27 16 16 8 15 -35
-3 -57 -24 -56 -18 3 18 30 18 56 30 58 26 2 -4 -6 -25 -17 -46z m-4486 -3
c-3 -5 -14 -10 -23 -10 -15 0 -15 2 -2 10 20 13 33 13 25 0z m4265 -21 c42 -1
60 -4 40 -7 -46 -5 -220 8 -220 17 0 4 24 4 53 0 28 -4 86 -9 127 -10z m113 4
c-7 -2 -19 -2 -25 0 -7 3 -2 5 12 5 14 0 19 -2 13 -5z m-4396 -19 c-3 -3 -12
-4 -19 -1 -8 3 -5 6 6 6 11 1 17 -2 13 -5z m4143 2 c0 -2 -11 -6 -25 -8 -13
-3 -22 -1 -19 3 5 9 44 13 44 5z m-3895 -16 c3 -5 1 -10 -4 -10 -6 0 -11 5
-11 10 0 6 2 10 4 10 3 0 8 -4 11 -10z m3285 -15 c0 -2 -15 -12 -32 -20 l-33
-16 25 20 c24 20 40 26 40 16z m-1203 -11 c-3 -3 -12 -4 -19 -1 -8 3 -5 6 6 6
11 1 17 -2 13 -5z m46 -11 c-7 -2 -19 -2 -25 0 -7 3 -2 5 12 5 14 0 19 -2 13
-5z m-2153 -13 c0 -5 -5 -10 -11 -10 -5 0 -7 5 -4 10 3 6 8 10 11 10 2 0 4 -4
4 -10z m1440 0 c-20 -13 -43 -13 -35 0 3 6 16 10 28 10 18 0 19 -2 7 -10z m50
6 c0 -2 -7 -7 -16 -10 -8 -3 -12 -2 -9 4 6 10 25 14 25 6z m2225 -6 c-3 -5
-11 -10 -16 -10 -6 0 -7 5 -4 10 3 6 11 10 16 10 6 0 7 -4 4 -10z m-1128 -6
c-3 -3 -12 -4 -19 -1 -8 3 -5 6 6 6 11 1 17 -2 13 -5z m-414 -11 c-7 -2 -19
-2 -25 0 -7 3 -2 5 12 5 14 0 19 -2 13 -5z m360 0 c-7 -2 -21 -2 -30 0 -10 3
-4 5 12 5 17 0 24 -2 18 -5z m-70 -10 c-13 -2 -33 -2 -45 0 -13 2 -3 4 22 4
25 0 35 -2 23 -4z m-3916 -325 c-3 -8 -6 -5 -6 6 -1 11 2 17 5 13 3 -3 4 -12
1 -19z m6670 -12 c110 -23 103 -16 103 -118 l0 -89 -33 25 c-45 34 -115 63
-187 76 -112 20 -217 -18 -253 -91 -15 -31 -16 -44 -7 -86 17 -80 63 -118 264
-217 95 -47 181 -95 192 -107 19 -22 19 -22 -3 -10 -28 15 -28 15 -30 -11 -1
-11 -6 -24 -12 -27 -5 -3 -8 -18 -8 -33 1 -14 4 -25 6 -22 2 2 10 -8 18 -23
12 -22 11 -29 -3 -51 -12 -19 -18 -21 -24 -11 -5 7 -7 -6 -4 -32 l5 -44 -21
52 c-31 76 -81 115 -274 209 -176 86 -225 121 -272 196 -52 82 -40 230 25 308
36 44 125 90 205 106 85 17 232 17 313 0z m-4194 -18 l67 -11 0 -99 0 -99 -45
31 c-72 50 -145 70 -249 70 -148 0 -249 -37 -346 -126 -40 -38 -66 -73 -88
-122 -92 -198 -61 -396 84 -538 122 -120 284 -164 487 -133 110 17 107 13 106
132 0 56 -4 142 -7 190 -7 84 -9 90 -40 118 l-32 29 126 0 126 0 -6 -272 -7
-273 -82 -12 c-249 -36 -397 -35 -549 3 -68 17 -217 91 -225 112 -3 6 -9 12
-15 12 -16 0 -88 73 -122 124 -62 95 -79 157 -80 291 -1 142 20 225 82 320
140 218 448 313 815 253z m-2488 -65 c-10 -55 -17 -31 -8 28 4 33 9 45 11 30
2 -13 1 -39 -3 -58z m1325 -18 c0 -52 -2 -95 -5 -95 -3 0 -16 9 -27 20 -12 11
-40 25 -63 31 -43 12 -257 15 -275 4 -6 -4 -10 -66 -10 -167 l0 -160 140 4
140 3 0 -85 c0 -47 -4 -80 -8 -74 -17 25 -62 37 -164 42 l-108 5 0 -167 c0
-104 -4 -166 -10 -166 -5 0 -10 6 -10 13 0 8 -4 7 -10 -3 -8 -12 -10 -10 -11
10 -1 20 -3 18 -9 -10 -5 -23 -8 -27 -9 -13 -1 25 -24 40 -67 45 -28 3 -29 1
-35 -42 -3 -25 -7 143 -7 373 -2 447 -4 466 -53 501 -21 15 -3 16 271 19 162
1 303 3 313 5 15 2 17 -8 17 -93z m2100 -8 l0 -99 -30 26 c-17 14 -47 30 -68
36 -43 11 -251 13 -269 2 -8 -5 -12 -54 -14 -161 l-1 -153 141 1 141 2 0 -86
0 -86 -28 21 c-24 18 -44 21 -141 23 l-113 2 -5 -201 c-3 -115 -2 -204 4 -207
21 -13 242 -26 305 -18 71 10 168 48 207 84 16 14 22 17 19 7 -3 -8 -20 -59
-37 -112 l-33 -98 -346 0 -345 0 22 24 c15 16 25 44 31 87 9 62 4 851 -6 916
-3 19 -17 42 -34 56 -16 14 -27 26 -25 28 2 2 143 4 314 4 l311 0 0 -98z m416
93 c93 0 114 -3 114 -14 0 -8 71 -104 158 -214 86 -109 178 -225 203 -258 149
-192 282 -359 288 -362 10 -4 2 720 -9 760 -6 20 -24 48 -40 62 -17 13 -30 26
-30 28 0 2 68 3 150 3 83 0 150 -3 150 -6 0 -3 -11 -11 -24 -17 -13 -6 -33
-30 -45 -54 -20 -43 -21 -56 -21 -540 -1 -447 -5 -541 -24 -493 -3 8 -13 15
-23 15 -14 0 -15 -2 -5 -9 10 -6 4 -10 -18 -14 -55 -12 -56 -11 -385 403 -77
96 -142 177 -145 180 -3 3 -55 67 -115 143 l-110 139 -3 -359 c-2 -197 0 -377
3 -400 4 -27 17 -53 35 -73 l28 -30 -136 0 c-129 0 -135 1 -113 16 51 36 53
51 51 541 -1 492 0 488 -55 531 -28 22 -33 37 -9 28 9 -3 67 -6 130 -6z m1784
-34 c94 -35 199 -104 244 -159 83 -103 111 -201 104 -368 -4 -96 -10 -126 -34
-186 -39 -97 -90 -169 -108 -153 -8 6 -26 8 -40 4 -19 -4 -28 -2 -32 10 -5 14
-9 14 -35 0 -36 -18 -38 -37 -4 -28 19 5 25 2 25 -10 0 -10 5 -13 18 -9 15 6
15 5 3 -10 -7 -9 -9 -17 -3 -17 5 0 15 7 22 15 7 8 17 15 23 15 15 0 -22 -38
-69 -71 -49 -33 -178 -86 -233 -95 -22 -4 -47 -1 -57 5 -16 10 -15 10 8 5 26
-6 145 25 178 46 13 8 12 10 -5 11 -11 1 -28 2 -37 1 -10 -1 -18 4 -18 10 0 9
-3 9 -12 0 -20 -20 -46 -14 -44 10 1 16 -5 23 -19 25 l-20 3 20 -10 c15 -7 6
-8 -35 -7 -98 3 -197 -4 -175 -12 19 -8 19 -8 -2 -20 -16 -8 -35 -8 -63 -2
-30 7 -49 6 -68 -4 -15 -7 -37 -17 -49 -22 -17 -6 -20 -12 -13 -23 7 -12 44
-16 182 -20 l173 -6 -247 -2 c-224 -2 -280 3 -233 22 9 3 23 22 31 42 13 30
15 106 14 487 0 247 -3 462 -6 476 -4 14 -18 39 -33 54 l-26 28 300 -3 300 -4
75 -28z m1202 -620 c10 -18 9 -19 -4 -8 -9 7 -18 9 -20 5 -3 -4 -3 -3 -2 4 2
7 -1 15 -6 18 -6 4 -10 11 -10 17 0 14 28 -10 42 -36z m26 -51 c-3 -3 -9 2
-12 12 -6 14 -5 15 5 6 7 -7 10 -15 7 -18z m-151 -187 c-3 -7 -5 -2 -5 12 0
14 2 19 5 13 2 -7 2 -19 0 -25z m-557 -48 c3 -3 37 -20 75 -38 39 -17 65 -32
58 -32 -7 0 -37 11 -67 24 -39 18 -53 20 -49 10 3 -8 0 -14 -6 -14 -6 0 -11 4
-11 9 0 5 -7 12 -16 15 -14 5 -15 -1 -9 -46 10 -70 0 -59 -19 22 -8 36 -18 74
-22 84 -6 17 -3 16 27 -5 19 -13 36 -26 39 -29z m-4693 -32 c-21 -64 -22 -66
-54 -65 -35 1 -41 22 -7 22 25 0 41 16 50 49 6 23 -9 39 -18 18 -7 -17 -115
-54 -170 -60 -38 -3 -58 -9 -58 -18 0 -7 5 -14 12 -16 20 -7 17 -48 -4 -48
-14 0 -18 8 -18 40 0 29 -4 40 -15 40 -11 0 -15 -11 -15 -40 l0 -40 -60 0
c-56 0 -64 3 -97 35 -29 28 -33 37 -24 49 9 11 9 15 -1 20 -7 3 1 2 17 -1 17
-4 91 -7 165 -7 118 -1 143 2 195 22 34 13 74 33 90 47 17 13 31 22 32 21 1
-1 -8 -31 -20 -68z m-977 27 c0 -6 -56 -35 -67 -35 -4 1 8 9 27 20 39 22 40
22 40 15z m54 -47 c-23 -69 -24 -71 -29 -66 -3 3 1 20 8 39 8 19 17 42 20 52
4 9 9 17 11 17 3 0 -2 -19 -10 -42z m-137 6 c-3 -3 -12 -4 -19 -1 -8 3 -5 6 6
6 11 1 17 -2 13 -5z m378 -73 c-21 -42 -27 -39 -9 4 7 19 15 45 15 57 2 20 3
19 6 -4 2 -15 -3 -40 -12 -57z m5368 59 c3 -11 1 -18 -4 -14 -5 3 -9 12 -9 20
0 20 7 17 13 -6z m-4736 4 c-3 -3 -12 -4 -19 -1 -8 3 -5 6 6 6 11 1 17 -2 13
-5z m-47 -13 c0 -14 -18 -23 -31 -15 -8 4 -7 9 2 15 18 11 29 11 29 0z m4007
-37 c-3 -3 -12 -4 -19 -1 -8 3 -5 6 6 6 11 1 17 -2 13 -5z m116 -1 c-7 -2 -19
-2 -25 0 -7 3 -2 5 12 5 14 0 19 -2 13 -5z m-4067 -38 l-6 -25 -223 2 -222 2
220 6 c121 3 221 7 223 8 1 1 2 12 2 24 0 12 3 19 6 15 4 -3 4 -18 0 -32z
m-923 -10 c-3 -9 -8 -14 -10 -11 -3 3 -2 9 2 15 9 16 15 13 8 -4z m264 -11
c-3 -3 -12 -4 -19 -1 -8 3 -5 6 6 6 11 1 17 -2 13 -5z m101 -1 c-15 -2 -42 -2
-60 0 -18 2 -6 4 27 4 33 0 48 -2 33 -4z"/>
<path d="M1510 2676 c0 -10 8 -16 22 -16 12 0 19 1 17 3 -2 1 -12 9 -21 16
-15 12 -18 11 -18 -3z"/>
<path d="M2400 2567 c0 -8 -13 -12 -37 -11 -52 2 -63 -4 -63 -32 0 -28 8 -31
24 -8 10 13 19 14 49 6 l37 -10 0 34 c0 19 -2 34 -5 34 -3 0 -5 -6 -5 -13z"/>
<path d="M2778 2383 c7 -3 16 -2 19 1 4 3 -2 6 -13 5 -11 0 -14 -3 -6 -6z"/>
<path d="M6050 2532 c-34 -12 -34 -48 0 -48 11 0 20 4 20 8 0 15 19 8 23 -9 4
-15 5 -15 7 2 l1 20 9 -20 c8 -18 9 -17 9 8 1 16 -3 26 -8 23 -5 -4 -12 0 -14
6 -4 9 -6 9 -6 -1 -1 -12 -3 -12 -13 1 -7 9 -20 13 -28 10z"/>
<path d="M6091 2434 c0 -11 3 -14 6 -6 3 7 2 16 -1 19 -3 4 -6 -2 -5 -13z"/>
<path d="M3416 3050 c-4 -8 -35 -85 -70 -170 l-64 -155 69 -3 c38 -2 100 -2
137 0 l68 3 -67 170 c-39 97 -70 164 -73 155z"/>
<path d="M5305 2340 c-13 -6 -15 -9 -5 -9 8 0 22 4 30 9 18 12 2 12 -25 0z"/>
<path d="M6523 2725 c-12 -9 -27 -33 -34 -53 -14 -47 7 -106 45 -123 35 -16
91 -3 110 26 21 33 20 104 -2 133 -24 31 -88 40 -119 17z"/>
<path d="M7482 1316 c16 -19 38 -15 38 7 0 8 -4 7 -9 -2 -8 -13 -12 -13 -28
-1 -17 13 -17 13 -1 -4z"/>
<path d="M7480 1211 c0 -5 5 -13 10 -16 6 -3 10 -2 10 4 0 5 -4 13 -10 16 -5
3 -10 2 -10 -4z"/>
<path d="M2650 990 c0 -6 7 -10 15 -10 8 0 15 2 15 4 0 2 -7 6 -15 10 -8 3
-15 1 -15 -4z"/>
<path d="M2616 965 c-3 -9 -12 -12 -23 -8 -16 6 -16 5 -4 -10 18 -23 24 -21
38 8 6 14 8 25 3 25 -4 0 -10 -7 -14 -15z"/>
<path d="M2720 961 c0 -11 4 -23 10 -26 6 -4 7 1 3 11 -6 15 -4 15 20 -1 33
-21 36 -10 5 16 -29 24 -38 24 -38 0z"/>
<path d="M2770 880 c0 -5 7 -7 15 -4 8 4 15 8 15 10 0 2 -7 4 -15 4 -8 0 -15
-4 -15 -10z"/>
<path d="M2830 816 c0 -2 11 -6 25 -8 13 -3 22 -1 19 3 -5 9 -44 13 -44 5z"/>
<path d="M3264 809 c-3 -5 9 -9 25 -9 17 0 31 2 31 4 0 8 -51 13 -56 5z"/>
<path d="M2905 798 c14 -9 67 -13 175 -14 l155 -2 -155 8 c-85 4 -164 10 -175
14 l-20 8 20 -14z"/>
<path d="M3666 834 c-3 -9 -6 -18 -6 -20 0 -2 28 -4 63 -3 l62 0 -45 19 c-56
23 -66 24 -74 4z"/>
<path d="M3980 829 c0 -7 -9 -9 -24 -5 -13 3 -35 2 -48 -3 -17 -7 -5 -10 52
-10 68 0 73 1 56 14 -24 18 -36 19 -36 4z"/>
<path d="M5427 819 c7 -7 15 -10 18 -7 3 3 -2 9 -12 12 -14 6 -15 5 -6 -5z"/>
<path d="M6030 1791 l-35 -6 -3 -427 -2 -428 87 -1 c169 -2 237 10 325 58 143
78 219 259 189 451 -28 182 -134 302 -306 347 -59 15 -187 18 -255 6z"/>
<path d="M6663 1078 c-6 -7 -13 -22 -17 -32 -5 -15 -4 -17 8 -7 7 6 16 21 19
31 6 23 3 25 -10 8z"/>
<path d="M5940 1009 c0 -5 -4 -8 -9 -4 -5 3 -9 -8 -9 -25 1 -35 2 -35 22 -14
15 14 16 14 17 -3 0 -16 1 -16 8 2 5 11 3 28 -3 38 -12 19 -26 23 -26 6z"/>
<path d="M6398 973 c-21 -8 -38 -19 -38 -24 0 -4 16 -1 36 7 20 9 47 13 60 10
12 -3 25 -2 28 3 3 5 -4 11 -17 15 -28 7 -25 8 -69 -11z"/>
<path d="M6495 960 c-3 -5 1 -10 9 -10 8 0 18 5 21 10 3 6 -1 10 -9 10 -8 0
-18 -4 -21 -10z"/>
<path d="M5826 874 c-4 -14 -5 -28 -3 -31 3 -2 8 8 11 23 4 14 5 28 3 31 -3 2
-8 -8 -11 -23z"/>
<path d="M1813 903 c9 -2 25 -2 35 0 9 3 1 5 -18 5 -19 0 -27 -2 -17 -5z"/>
<path d="M2678 3453 c7 -3 16 -2 19 1 4 3 -2 6 -13 5 -11 0 -14 -3 -6 -6z"/>
<path d="M2611 3439 c-18 -6 -31 -12 -29 -14 5 -5 78 14 78 20 0 6 -8 5 -49
-6z"/>
<path d="M5370 3440 c8 -5 22 -9 30 -9 10 0 8 3 -5 9 -27 12 -43 12 -25 0z"/>
<path d="M2918 3423 c6 -2 18 -2 25 0 6 3 1 5 -13 5 -14 0 -19 -2 -12 -5z"/>
<path d="M5430 3420 c8 -5 22 -9 30 -9 10 0 8 3 -5 9 -27 12 -43 12 -25 0z"/>
<path d="M2505 3405 c-16 -8 -23 -14 -15 -14 8 0 29 6 45 14 17 7 23 13 15 13
-8 0 -28 -6 -45 -13z"/>
<path d="M2785 3399 c-146 -42 -206 -61 -201 -66 2 -3 29 3 58 13 29 9 100 30
158 45 58 15 94 27 80 27 -14 0 -56 -8 -95 -19z"/>
<path d="M5525 3390 c27 -12 43 -12 25 0 -8 5 -22 9 -30 9 -10 0 -8 -3 5 -9z"/>
<path d="M2410 3370 c-45 -24 -28 -24 25 0 22 10 33 19 25 19 -8 0 -31 -8 -50
-19z"/>
<path d="M2340 3340 c-8 -5 -10 -10 -5 -10 6 0 17 5 25 10 8 5 11 10 5 10 -5
0 -17 -5 -25 -10z"/>
<path d="M5671 3336 c2 -2 15 -9 29 -15 24 -11 24 -11 6 3 -16 13 -49 24 -35
12z"/>
<path d="M2548 3323 c7 -3 16 -2 19 1 4 3 -2 6 -13 5 -11 0 -14 -3 -6 -6z"/>
<path d="M2270 3310 c-8 -5 -10 -10 -5 -10 6 0 17 5 25 10 8 5 11 10 5 10 -5
0 -17 -5 -25 -10z"/>
<path d="M2437 3287 c-43 -18 -73 -33 -67 -35 6 -2 30 5 54 17 24 11 56 23 70
27 14 3 29 10 32 15 8 13 -4 10 -89 -24z"/>
<path d="M2224 3284 c-18 -14 -18 -15 4 -4 12 6 22 13 22 15 0 8 -5 6 -26 -11z"/>
<path d="M2170 3257 c-14 -7 -38 -22 -55 -33 -25 -16 -54 -20 -215 -24 l-185
-6 181 -2 180 -2 47 30 c26 17 52 30 57 30 5 0 12 5 15 10 8 13 5 13 -25 -3z"/>
<path d="M7116 3143 c-6 -14 -5 -15 5 -6 7 7 10 15 7 18 -3 3 -9 -2 -12 -12z"/>
<path d="M985 3131 c-3 -5 11 -27 31 -48 46 -49 95 -132 125 -214 19 -54 23
-83 23 -189 0 -85 3 -111 7 -80 27 168 -28 358 -139 481 l-44 49 229 3 228 2
-227 3 c-130 1 -229 -2 -233 -7z"/>
<path d="M7043 3033 c-3 -10 -8 -22 -11 -27 -3 -5 0 -6 5 -3 11 7 25 47 17 47
-3 0 -7 -8 -11 -17z"/>
<path d="M7017 2983 c-4 -3 -7 -13 -7 -22 1 -13 3 -13 11 2 11 19 8 33 -4 20z"/>
<path d="M1001 2940 c0 -8 4 -24 9 -35 5 -13 9 -14 9 -5 0 8 -4 24 -9 35 -5
13 -9 14 -9 5z"/>
<path d="M6987 2881 c-4 -18 -7 -43 -6 -55 1 -11 5 -1 10 24 5 25 7 49 6 55
-2 5 -7 -5 -10 -24z"/>
<path d="M1022 2855 c0 -16 2 -22 5 -12 2 9 2 23 0 30 -3 6 -5 -1 -5 -18z"/>
<path d="M1033 2740 c0 -47 2 -66 4 -42 2 23 2 61 0 85 -2 23 -4 4 -4 -43z"/>
<path d="M6973 2740 c0 -30 2 -43 4 -27 2 15 2 39 0 55 -2 15 -4 2 -4 -28z"/>
<path d="M6982 2640 c0 -14 2 -19 5 -12 2 6 2 18 0 25 -3 6 -5 1 -5 -13z"/>
<path d="M1016 2603 c-4 -22 -29 -85 -56 -140 -26 -54 -47 -99 -46 -100 1 -2
21 30 43 70 42 73 78 177 70 200 -2 6 -7 -7 -11 -30z"/>
<path d="M6991 2600 c0 -8 4 -24 9 -35 5 -13 9 -14 9 -5 0 8 -4 24 -9 35 -5
13 -9 14 -9 5z"/>
<path d="M6851 2555 c-1 -53 29 -158 65 -223 39 -72 84 -132 98 -132 6 0 -4
15 -21 33 -49 50 -110 181 -126 272 -8 44 -15 67 -16 50z"/>
<path d="M1146 2502 c-9 -57 -46 -160 -72 -200 -9 -13 -11 -21 -5 -18 32 20
95 193 89 243 -3 21 -6 14 -12 -25z"/>
<path d="M7032 2479 c6 -16 12 -28 14 -26 5 5 -13 57 -20 57 -3 0 0 -14 6 -31z"/>
<path d="M7067 2408 c23 -41 150 -171 183 -187 17 -9 14 -4 -10 15 -55 43
-127 119 -155 164 -30 47 -44 54 -18 8z"/>
<path d="M845 2302 c-35 -40 -36 -43 -9 -22 34 27 70 71 57 69 -4 0 -26 -22
-48 -47z"/>
<path d="M11 2263 c0 -9 99 -76 104 -71 2 2 -21 20 -51 41 -30 21 -54 35 -53
30z"/>
<path d="M1040 2255 c-7 -9 -11 -17 -9 -20 3 -2 10 5 17 15 14 24 10 26 -8 5z"/>
<path d="M765 2233 c-11 -8 -56 -33 -100 -55 -44 -21 -69 -36 -55 -32 49 13
211 104 185 104 -5 -1 -19 -8 -30 -17z"/>
<path d="M14 1995 c0 -137 2 -195 3 -128 2 67 2 179 0 250 -1 70 -3 16 -3
-122z"/>
<path d="M7946 2232 c-3 -5 -37 -24 -75 -42 -39 -19 -69 -36 -67 -38 6 -5 128
57 146 74 8 8 11 14 8 14 -4 0 -9 -4 -12 -8z"/>
<path d="M960 2169 c-30 -28 -75 -61 -100 -74 -25 -13 -40 -24 -35 -24 22 -1
112 60 155 103 58 60 49 58 -20 -5z"/>
<path d="M130 2186 c0 -2 7 -7 16 -10 8 -3 12 -2 9 4 -6 10 -25 14 -25 6z"/>
<path d="M7020 2187 c0 -10 108 -87 158 -112 54 -27 151 -59 158 -52 2 2 -22
12 -54 21 -70 23 -152 65 -214 112 -27 20 -48 34 -48 31z"/>
<path d="M7340 2176 c0 -2 7 -7 16 -10 8 -3 12 -2 9 4 -6 10 -25 14 -25 6z"/>
<path d="M548 2133 c6 -2 18 -2 25 0 6 3 1 5 -13 5 -14 0 -19 -2 -12 -5z"/>
<path d="M7448 2133 c7 -3 16 -2 19 1 4 3 -2 6 -13 5 -11 0 -14 -3 -6 -6z"/>
<path d="M373 2123 c32 -2 81 -2 110 0 29 2 3 3 -58 3 -60 0 -84 -1 -52 -3z"/>
<path d="M7538 2123 c29 -2 74 -2 100 0 26 2 2 3 -53 3 -55 0 -76 -1 -47 -3z"/>
<path d="M7698 2123 c7 -3 16 -2 19 1 4 3 -2 6 -13 5 -11 0 -14 -3 -6 -6z"/>
<path d="M200 2070 c0 -5 5 -10 10 -10 6 0 10 5 10 10 0 6 -4 10 -10 10 -5 0
-10 -4 -10 -10z"/>
<path d="M7804 1907 c0 -157 -8 -230 -39 -377 l-6 -25 12 25 c25 56 40 176 46
358 3 111 2 192 -3 192 -5 0 -9 -78 -10 -173z"/>
<path d="M230 2065 c0 -8 73 -36 78 -30 3 3 3 5 0 5 -3 0 -22 7 -42 15 -20 8
-36 13 -36 10z"/>
<path d="M7755 2060 c-8 -13 5 -13 25 0 13 8 13 10 -2 10 -9 0 -20 -4 -23 -10z"/>
<path d="M198 1888 c3 -157 29 -348 53 -388 10 -17 9 -12 -17 105 -9 43 -18
143 -21 258 -3 103 -8 187 -12 187 -3 0 -5 -73 -3 -162z"/>
<path d="M7719 2045 c-3 -2 -30 -11 -60 -20 -52 -15 -53 -15 -10 -10 40 5 110
34 85 35 -6 0 -13 -2 -15 -5z"/>
<path d="M7375 2009 c29 -7 240 -11 220 -4 -5 2 -64 5 -130 7 -66 3 -106 1
-90 -3z"/>
<path d="M21 1703 c-1 -37 23 -167 38 -203 13 -33 14 -11 1 26 -6 16 -16 70
-24 119 -8 50 -14 76 -15 58z"/>
<path d="M7982 1675 c0 -16 2 -22 5 -12 2 9 2 23 0 30 -3 6 -5 -1 -5 -18z"/>
<path d="M7971 1614 c0 -11 3 -14 6 -6 3 7 2 16 -1 19 -3 4 -6 -2 -5 -13z"/>
<path d="M7962 1560 c0 -14 2 -19 5 -12 2 6 2 18 0 25 -3 6 -5 1 -5 -13z"/>
<path d="M7951 1514 c0 -11 3 -14 6 -6 3 7 2 16 -1 19 -3 4 -6 -2 -5 -13z"/>
<path d="M7941 1483 c-1 -6 -4 -20 -7 -30 -5 -17 -5 -17 6 0 6 10 9 23 6 30
-3 9 -5 9 -5 0z"/>
<path d="M71 1454 c0 -11 3 -14 6 -6 3 7 2 16 -1 19 -3 4 -6 -2 -5 -13z"/>
<path d="M261 1463 c-2 -35 123 -322 135 -310 2 2 -9 28 -25 58 -16 30 -43 92
-61 139 -47 123 -49 126 -49 113z"/>
<path d="M7921 1414 c0 -11 3 -14 6 -6 3 7 2 16 -1 19 -3 4 -6 -2 -5 -13z"/>
<path d="M90 1396 c0 -15 63 -166 68 -162 2 3 -10 40 -28 83 -32 77 -40 93
-40 79z"/>
<path d="M7895 1348 c-46 -114 -56 -142 -47 -133 13 14 74 166 69 171 -2 3
-12 -14 -22 -38z"/>
<path d="M201 1141 c24 -44 56 -94 72 -113 l29 -33 -24 35 c-13 19 -44 70 -67
113 -23 42 -45 77 -47 77 -3 0 14 -36 37 -79z"/>
<path d="M7772 1094 c-17 -30 -27 -52 -23 -49 12 7 64 96 59 101 -2 2 -18 -21
-36 -52z"/>
<path d="M412 1118 c8 -13 21 -33 29 -45 8 -13 17 -23 21 -23 4 0 -4 16 -17
36 -14 20 -25 41 -25 45 0 5 -5 9 -11 9 -7 0 -6 -8 3 -22z"/>
<path d="M470 1035 c0 -12 90 -120 90 -110 0 5 -17 29 -37 54 -51 64 -53 66
-53 56z"/>
<path d="M320 960 c11 -16 26 -33 32 -36 7 -4 -1 9 -16 29 -34 44 -46 50 -16
7z"/>
<path d="M391 875 c41 -45 48 -45 12 0 -15 19 -31 35 -36 35 -4 0 7 -16 24
-35z"/>
<path d="M547 720 c9 -11 19 -17 21 -15 6 6 -18 35 -29 35 -5 0 -1 -9 8 -20z"/>
<path d="M780 710 c19 -16 53 -38 75 -50 22 -11 32 -15 21 -8 -10 7 -40 30
-67 51 -57 44 -80 50 -29 7z"/>
<path d="M597 679 c12 -13 37 -32 55 -42 l33 -18 -25 20 c-14 11 -38 30 -55
43 l-30 22 22 -25z"/>
<path d="M7195 690 c-3 -6 1 -7 9 -4 18 7 21 14 7 14 -6 0 -13 -4 -16 -10z"/>
<path d="M7130 649 l-25 -20 33 16 c17 8 32 18 32 20 0 10 -16 4 -40 -16z"/>
<path d="M7340 634 c-60 -40 -94 -69 -45 -39 82 50 115 75 102 75 -1 0 -27
-16 -57 -36z"/>
<path d="M900 633 c0 -4 14 -16 30 -25 17 -9 30 -14 30 -10 0 4 -13 16 -30 25
-16 10 -30 15 -30 10z"/>
<path d="M697 609 c7 -7 15 -10 18 -7 3 3 -2 9 -12 12 -14 6 -15 5 -6 -5z"/>
<path d="M7005 580 c-38 -21 -124 -56 -190 -79 -235 -80 -146 -75 -1410 -81
-1128 -5 -1130 -5 -1176 -26 -45 -22 -98 -74 -132 -133 -29 -49 -12 -36 22 17
35 54 71 84 137 112 44 19 76 20 1113 20 677 0 1097 4 1151 10 110 14 192 34
313 76 88 30 257 109 257 120 0 9 -17 1 -85 -36z"/>
<path d="M1049 550 c46 -23 85 -39 88 -37 5 5 -113 62 -149 71 -12 4 15 -12
61 -34z"/>
<path d="M765 565 c22 -19 126 -73 110 -58 -5 6 -37 25 -70 42 -33 18 -51 25
-40 16z"/>
<path d="M7203 549 c-29 -17 -53 -33 -53 -36 0 -5 89 44 105 58 16 16 1 9 -52
-22z"/>
<path d="M1195 489 c60 -23 150 -45 265 -64 70 -12 274 -14 1175 -13 l1090 3
-1125 5 c-1103 6 -1127 6 -1215 27 -49 12 -119 31 -155 42 -82 26 -101 26 -35
0z"/>
<path d="M7091 494 c-18 -8 -31 -17 -28 -20 3 -3 22 4 44 15 44 23 34 26 -16
5z"/>
<path d="M975 460 c33 -16 67 -30 75 -30 8 0 -12 12 -45 26 -88 37 -98 38 -30
4z"/>
<path d="M6990 450 c-13 -8 -13 -10 2 -10 9 0 20 5 23 10 8 13 -5 13 -25 0z"/>
<path d="M6907 423 c-32 -9 -56 -17 -54 -20 6 -6 100 18 112 28 5 5 7 9 5 8
-3 -1 -31 -8 -63 -16z"/>
<path d="M1099 415 c18 -8 41 -15 50 -15 9 1 -2 7 -24 15 -52 19 -70 18 -26 0z"/>
<path d="M3769 389 c70 -33 128 -100 177 -204 24 -51 50 -95 57 -98 9 -3 25
18 46 60 18 36 30 67 28 69 -2 2 -16 -23 -32 -56 -16 -33 -33 -60 -39 -60 -6
0 -31 43 -55 96 -48 103 -98 163 -165 195 -22 10 -45 19 -50 19 -6 -1 9 -10
33 -21z"/>
<path d="M1185 391 c11 -4 38 -11 60 -14 25 -4 33 -4 20 2 -11 4 -38 11 -60
14 -25 4 -33 4 -20 -2z"/>
<path d="M6768 383 c6 -2 18 -2 25 0 6 3 1 5 -13 5 -14 0 -19 -2 -12 -5z"/>
<path d="M6635 364 l-90 -13 84 5 c46 3 93 9 105 14 27 11 12 10 -99 -6z"/>
<path d="M1313 363 c9 -2 25 -2 35 0 9 3 1 5 -18 5 -19 0 -27 -2 -17 -5z"/>
<path d="M1403 353 c15 -2 39 -2 55 0 15 2 2 4 -28 4 -30 0 -43 -2 -27 -4z"/>
<path d="M1537 343 c18 -2 50 -2 70 0 21 2 7 4 -32 4 -38 0 -55 -2 -38 -4z"/>
<path d="M1838 343 c18 -2 45 -2 60 0 15 2 0 4 -33 4 -33 0 -45 -2 -27 -4z"/>
<path d="M2137 343 c18 -2 50 -2 70 0 21 2 7 4 -32 4 -38 0 -55 -2 -38 -4z"/>
<path d="M2438 343 c23 -2 61 -2 85 0 23 2 4 4 -43 4 -47 0 -66 -2 -42 -4z"/>
<path d="M2743 343 c15 -2 39 -2 55 0 15 2 2 4 -28 4 -30 0 -43 -2 -27 -4z"/>
<path d="M3037 343 c18 -2 50 -2 70 0 21 2 7 4 -32 4 -38 0 -55 -2 -38 -4z"/>
<path d="M3333 343 c20 -2 54 -2 75 0 20 2 3 4 -38 4 -41 0 -58 -2 -37 -4z"/>
<path d="M3628 343 c17 -2 47 -2 65 0 17 2 3 4 -33 4 -36 0 -50 -2 -32 -4z"/>
<path d="M4303 343 c9 -2 23 -2 30 0 6 3 -1 5 -18 5 -16 0 -22 -2 -12 -5z"/>
<path d="M4533 343 c20 -2 54 -2 75 0 20 2 3 4 -38 4 -41 0 -58 -2 -37 -4z"/>
<path d="M4838 343 c23 -2 61 -2 85 0 23 2 4 4 -43 4 -47 0 -66 -2 -42 -4z"/>
<path d="M5133 343 c20 -2 54 -2 75 0 20 2 3 4 -38 4 -41 0 -58 -2 -37 -4z"/>
<path d="M5437 343 c18 -2 50 -2 70 0 21 2 7 4 -32 4 -38 0 -55 -2 -38 -4z"/>
<path d="M5737 343 c18 -2 50 -2 70 0 21 2 7 4 -32 4 -38 0 -55 -2 -38 -4z"/>
<path d="M6038 343 c23 -2 61 -2 85 0 23 2 4 4 -43 4 -47 0 -66 -2 -42 -4z"/>
<path d="M6348 343 c17 -2 47 -2 65 0 17 2 3 4 -33 4 -36 0 -50 -2 -32 -4z"/>
<path d="M3759 324 c19 -8 41 -19 48 -26 7 -6 13 -6 13 -1 0 10 -64 43 -83 43
-7 -1 3 -7 22 -16z"/>
<path d="M3867 245 c22 -27 55 -77 72 -110 17 -33 29 -49 25 -35 -7 26 -55
114 -77 140 -7 8 -23 24 -37 35 -13 11 -6 -2 17 -30z"/>
<path d="M4143 258 c-25 -29 -66 -88 -60 -88 2 0 23 25 45 55 43 58 49 71 15
33z"/>
<path d="M4057 125 c-24 -50 -20 -58 4 -12 11 22 19 41 17 43 -3 2 -12 -12
-21 -31z"/>
<path d="M3970 65 c1 -6 7 -21 16 -35 l15 -25 -7 25 c-7 26 -24 52 -24 35z"/>
<path d="M4021 39 c-6 -18 -9 -34 -7 -36 2 -2 9 10 15 28 6 18 9 34 7 36 -2 2
-9 -10 -15 -28z"/>
</g>
</svg>
